<svg xmlns="http://www.w3.org/2000/svg" version="1.1" 
xmlns:xlink="http://www.w3.org/1999/xlink"
 xmlns:svgjs="http://svgjs.dev/svgjs" 
 width="2000" height="1500" viewBox="0 0 2000 1500">
 <rect width="2000" height="1500" fill="#ffffff"></rect><g transform="matrix(0.32195750160978753,0,0,0.32195750160978753,677.1609546856819,250.40485829959516)"><svg viewBox="0 0 159 247" data-background-color="#ffffff" preserveAspectRatio="xMidYMid meet" height="3106" width="2000" xmlns="http://www.w3.org/2000/svg" xmlns:xlink="http://www.w3.org/1999/xlink"><g id="tight-bounds" transform="matrix(1,0,0,1,0.21767694232863732,-0.09999999999999432)"><svg viewBox="0 0 158.5646422436931 247.2" height="247.2" width="158.5646422436931"><g><svg viewBox="0 0 366.29974597798474 571.0560432923969" height="247.2" width="158.5646422436931"><g transform="matrix(1,0,0,1,0,323.85604329239686)"><svg viewBox="0 0 366.29974597798474 247.20000000000002" height="247.20000000000002" width="366.29974597798474"><g><svg viewBox="0 0 366.29974597798474 247.20000000000002" height="247.20000000000002" width="366.29974597798474"><g><svg viewBox="0 0 366.29974597798474 247.20000000000002" height="247.20000000000002" width="366.29974597798474"><g transform="matrix(1,0,0,1,0,0)"><svg width="366.29974597798474" viewBox="-7.5 -38.349998474121094 87.48999786376953 59.04999923706055" height="247.20000000000002" data-palette-color="#ea3c12"><path d="M23.3-23.5L23.3-23.5Q21.35-23.5 21.35-25.2L21.35-25.2Q21.35-27.8 24.25-30.1 27.15-32.4 31.15-33.85L31.15-33.85Q30.8-35.3 29.35-36.08 27.9-36.85 25.78-36.85 23.65-36.85 21.38-36.05 19.1-35.25 17.07-33.77 15.05-32.3 13.78-29.88 12.5-27.45 12.5-24.55L12.5-24.55Q12.5-23.55 14-18.7 15.5-13.85 15.5-10.65L15.5-10.65Q15.5-9.85 15.3-8.35L15.3-8.35Q17.2-8.55 18.05-8.55L18.05-8.55Q22.9-8.55 22.9-6L22.9-6Q22.9-5.1 22.35-4.5 21.8-3.9 20.5-3.1L20.5-3.1Q20.1-3.35 20.1-3.55 20.1-3.75 20.3-3.9L20.3-3.9Q21.8-4.75 21.8-5.6L21.8-5.6Q21.8-7.3 17.85-7.3L17.85-7.3Q16.4-7.3 15.05-7.1L15.05-7.1Q14.2-3.9 11.88-1.13 9.55 1.65 6.7 3.38 3.85 5.1 0.98 6.05-1.9 7-4.1 7L-4.1 7Q-7.5 7-7.5 5L-7.5 5Q-7.5 2.2-4-0.65-0.5-3.5 4.33-5.43 9.15-7.35 13.8-8.15L13.8-8.15Q14-9.55 14-10.4L14-10.4Q14-12.55 12.43-17.13 10.85-21.7 10.85-25 10.85-28.3 13.45-31.58 16.05-34.85 19.63-36.6 23.2-38.35 26.4-38.35L26.4-38.35Q31.45-38.35 31.95-34.1L31.95-34.1Q34.75-35 35.75-35 36.75-35 36.83-34.93 36.9-34.85 36.9-34.35 36.9-33.85 36.45-33.7L36.45-33.7Q34.2-33.6 32-33.05L32-33.05Q31.9-29 28.95-26.25 26-23.5 23.3-23.5ZM-5.55 3.75L-5.55 3.75Q-5.55 5.2-2.65 5.2L-2.65 5.2Q1.4 5.2 6.4 2.3L6.4 2.3Q8.85 0.9 10.83-1.53 12.8-3.95 13.55-6.9L13.55-6.9Q9.3-6.2 5.03-4.65 0.75-3.1-2.4-0.83-5.55 1.45-5.55 3.75ZM22.95-25.5L22.95-25.5Q22.95-24.55 23.95-24.55L23.95-24.55Q25.85-24.55 28.53-27.13 31.2-29.7 31.25-32.8L31.25-32.8Q27.75-31.7 25.35-29.75 22.95-27.8 22.95-25.5ZM29-0.5L29-0.5Q29-1.05 29.82-2.35 30.65-3.65 30.92-4 31.2-4.35 31.75-5.1L31.75-5.1Q25.8 0.3 23.55 0.3L23.55 0.3Q22.3 0.3 22.3-0.75L22.3-0.75Q22.3-2.25 27.35-9.2L27.35-9.2Q27.6-9.6 28-9.6L28-9.6Q29.15-9.25 29.15-9.1 29.15-8.95 28.85-8.5L28.85-8.5Q24.55-2.7 24.55-1.98 24.55-1.25 25.05-1.25L25.05-1.25Q26.45-1.25 30.02-4.48 33.6-7.7 35.2-9.8L35.2-9.8Q35.4-10.15 35.85-10.15L35.85-10.15Q36.85-9.95 36.85-9.75L36.85-9.75Q36.3-8.95 35.35-7.65 34.4-6.35 33.8-5.53 33.2-4.7 32.55-3.75L32.55-3.75Q31.3-2.05 31.05-1.25L31.05-1.25Q31.05-0.75 31.87-0.75 32.7-0.75 34.8-1.73 36.9-2.7 38.5-3.7L38.5-3.7 40.1-4.7Q40.15-4.6 40.15-4.3 40.15-4 39.7-3.8L39.7-3.8Q32.95 0.8 30.3 0.8L30.3 0.8Q29 0.8 29-0.5ZM39-3.35L39-3.35Q38.8-3.25 38.62-3.25 38.45-3.25 38.45-3.45 38.45-3.65 38.6-3.8L38.6-3.8Q40.65-4.95 43.1-7.55L43.1-7.55Q40.85-8.25 40.85-9.53 40.85-10.8 42.55-12.38 44.25-13.95 45.75-13.95L45.75-13.95Q46.75-13.95 46.75-12.75L46.75-12.75Q46.75-10.9 44.9-8.8L44.9-8.8Q47.3-8.4 47.3-7.65L47.3-7.65Q47.3-6.65 46.42-6.13 45.55-5.6 44.4-4.25 43.25-2.9 43.25-1.55L43.25-1.55Q43.25-1.25 43.45-1 43.65-0.75 44.3-0.75 44.95-0.75 47.05-1.73 49.15-2.7 50.75-3.7L50.75-3.7 52.35-4.7Q52.4-4.6 52.4-4.3 52.4-4 51.95-3.8L51.95-3.8Q45.2 0.8 42.55 0.8L42.55 0.8Q41.25 0.8 41.25-0.5L41.25-0.5Q41.25-1.55 41.97-2.7 42.7-3.85 43.57-4.6 44.45-5.35 45.17-6.03 45.9-6.7 45.9-6.9 45.9-7.1 45.27-7.15 44.65-7.2 43.65-7.4L43.65-7.4Q40.9-4.45 39-3.35ZM42.1-10.3L42.1-10.3Q42.1-9.3 44.3-8.9L44.3-8.9Q45.6-10.5 45.6-11.68 45.6-12.85 44.85-12.85 44.1-12.85 43.1-11.98 42.1-11.1 42.1-10.3ZM63.64-9.35Q63.64-9.3 62.52-7.58 61.39-5.85 60.77-4.95 60.14-4.05 55.54 3.45L55.54 3.45Q55.94 3.4 56.84 3.4L56.84 3.4Q59.24 3.4 59.24 4.65L59.24 4.65Q59.24 5.35 58.34 6.3 57.44 7.25 56.94 7.25 56.44 7.25 56.44 6.9L56.44 6.9Q56.44 6.7 56.99 6.28 57.54 5.85 57.54 5.28 57.54 4.7 56.57 4.7 55.59 4.7 54.69 4.85L54.69 4.85Q50.14 12.3 46.84 16.5 43.54 20.7 41.19 20.7L41.19 20.7Q39.49 20.7 39.49 18.95L39.49 18.95Q39.49 15.95 44.02 10.63 48.54 5.3 53.84 3.8L53.84 3.8 58.64-4.5Q56.54-2.6 54.32-1.15 52.09 0.3 50.94 0.3 49.79 0.3 49.79-0.75L49.79-0.75Q49.79-2.35 55.04-9.6L55.04-9.6Q55.29-10 55.69-10L55.69-10Q56.84-9.65 56.84-9.5 56.84-9.35 56.54-8.9L56.54-8.9Q52.04-2.8 52.04-1.85L52.04-1.85Q52.04-1.25 52.72-1.25 53.39-1.25 55.52-2.85 57.64-4.45 59.14-6.1L59.14-6.1 61.94-9.5Q62.24-9.85 62.69-9.85L62.69-9.85Q63.64-9.7 63.64-9.35L63.64-9.35ZM44.34 11.68Q42.89 13.65 42.04 15.43 41.19 17.2 41.19 18.23 41.19 19.25 41.99 19.25L41.99 19.25Q44.49 19.25 52.94 5.25L52.94 5.25Q50.44 6.05 48.12 7.88 45.79 9.7 44.34 11.68ZM72.79-5.95L72.79-5.95Q72.49-5.95 72.49-6.3L72.49-6.3 72.64-6.65Q73.54-7.5 73.54-8.1L73.54-8.1Q73.54-8.85 72.74-8.85L72.74-8.85Q70.99-8.85 68.02-6.43 65.04-4 65.04-2.1L65.04-2.1Q65.04-1.3 66.09-1.3 67.14-1.3 68.52-2.18 69.89-3.05 70.87-3.93 71.84-4.8 71.94-4.8L71.94-4.8Q72.44-4.75 72.44-4.3L72.44-4.3Q72.44-4.1 71.67-3 70.89-1.9 70.89-1.25L70.89-1.25Q70.89-0.75 71.72-0.75 72.54-0.75 74.64-1.73 76.74-2.7 78.34-3.7L78.34-3.7 79.94-4.7Q79.99-4.6 79.99-4.3 79.99-4 79.54-3.8L79.54-3.8Q72.79 0.8 70.14 0.8L70.14 0.8Q68.84 0.8 68.84-0.5L68.84-0.5Q68.84-1.05 69.04-1.65L69.04-1.65Q68.69-1.25 66.97-0.43 65.24 0.4 63.89 0.4 62.54 0.4 62.54-0.85L62.54-0.85Q62.54-3.8 66.64-6.88 70.74-9.95 73.54-9.95L73.54-9.95Q75.19-9.95 75.19-8.55L75.19-8.55Q75.19-7.75 74.19-6.85 73.19-5.95 72.79-5.95Z" opacity="1" transform="matrix(1,0,0,1,0,0)" fill="#ea3c12" class="undefined-text-0" data-fill-palette-color="primary" id="text-0"></path></svg></g></svg></g></svg></g></svg></g><g transform="matrix(1,0,0,1,69.96325148179508,0)"><svg viewBox="0 0 226.37324301439457 265.49805609239684" height="265.49805609239684" width="226.37324301439457"><g><svg xmlns="http://www.w3.org/2000/svg" xmlns:xlink="http://www.w3.org/1999/xlink" version="1.1" x="8" y="0" viewBox="-250.70001220703125 140.98709106445312 63.399993896484375 80.01290893554688" enable-background="new -269 131 100 100" xml:space="preserve" height="265.49805609239684" width="210.37324301439457" class="icon-icon-0" data-fill-palette-color="accent" id="icon-0"><path d="M-200.1 163.7l-1-0.8c-1.2-1-3.1-0.6-3.8 0.8-0.3 0.7-0.6 7.7-0.6 8.9 0 0.2 0 0.6 0 0.7 0 1-0.9 1.8-1.9 1.6-0.8-0.1-1.4-0.9-1.4-1.7-0.1-12-3.7-20.4-10.5-26.7-4.1-3.8-9-7.2-10.5-4.6-0.4 0.7 0.2 2.2 0.9 4.1 1.4 4.3-2.9 11.2-9 18.1-5.7 6.5-12.8 14.5-12.8 26.4 0 16 15.1 30.5 31.7 30.5 16.6 0 31.7-14.5 31.7-30.5C-187.3 180.4-192.1 170.4-200.1 163.7zM-219 215.2c-7.2 0-13.1-5.9-13.1-13.1 0-3.6 1.4-6.8 3.8-9.2l7.2-8.6c1.1-1.3 3.2-1.3 4.3 0l7.2 8.6c2.3 2.4 3.8 5.6 3.8 9.2C-205.9 209.3-211.8 215.2-219 215.2z" fill="#ea3c12" data-fill-palette-color="accent"></path></svg></g></svg></g><g></g></svg></g><defs></defs></svg><rect width="158.5646422436931" height="247.2" ></rect></g></svg></g></svg>